<svg width="24" height="24" viewBox="0 0 24 24" fill="none" xmlns="http://www.w3.org/2000/svg">
<path d="M2.095 19.884L11.343 3.384C11.476 3.147 11.727 3 12 3C12.272 3 12.524 3.147 12.656 3.384L21.904 19.884C21.968 19.999 22 20.125 22 20.251C22 20.636 21.691 21 21.248 21H2.752C2.312 21 2 20.64 2 20.251C2 20.125 2.031 19.999 2.095 19.884ZM4.03 19.5H19.969L11.999 5.281L4.03 19.5ZM12.002 13.003C11.588 13.003 11.252 13.339 11.252 13.753V17.253C11.252 17.667 11.588 18.003 12.002 18.003C12.416 18.003 12.752 17.667 12.752 17.253V13.753C12.752 13.339 12.416 13.003 12.002 13.003ZM12 10.003C12.552 10.003 13 10.451 13 11.003C13 11.555 12.552 12.003 12 12.003C11.448 12.003 11 11.555 11 11.003C11 10.451 11.448 10.003 12 10.003Z" fill="black"/>
</svg>
