<svg width="24" height="24" viewBox="0 0 24 24" fill="none" xmlns="http://www.w3.org/2000/svg">
<path d="M11.997 2C17.515 2 21.995 6.48 21.995 11.997C21.995 17.515 17.515 21.995 11.997 21.995C6.48 21.995 2 17.515 2 11.997C2 6.48 6.48 2 11.997 2ZM11.997 3.5C7.307 3.5 3.5 7.307 3.5 11.997C3.5 16.687 7.307 20.495 11.997 20.495C16.687 20.495 20.495 16.687 20.495 11.997C20.495 7.307 16.687 3.5 11.997 3.5ZM11.997 10C11.583 10 11.247 10.336 11.247 10.75V16.25C11.247 16.664 11.583 17 11.997 17C12.411 17 12.747 16.664 12.747 16.25V10.75C12.747 10.336 12.411 10 11.997 10ZM11.995 7C12.547 7 12.995 7.448 12.995 8C12.995 8.552 12.547 9 11.995 9C11.443 9 10.995 8.552 10.995 8C10.995 7.448 11.443 7 11.995 7Z" fill="white"/>
</svg>
