<svg width="183" height="48" viewBox="0 0 183 48" fill="none" xmlns="http://www.w3.org/2000/svg">
<path d="M23.8037 17.342C23.2136 17.8111 22.4829 18.0679 21.7291 18.071C20.9753 18.0741 20.2425 17.8233 19.6486 17.3591C19.0547 16.8949 18.6344 16.2442 18.4554 15.512C18.2765 14.7798 18.3492 14.0086 18.662 13.3228C18.9747 12.637 19.5093 12.0764 20.1795 11.7314C20.8497 11.3865 21.6165 11.2772 22.3564 11.4212C23.0963 11.5652 23.7661 11.9541 24.258 12.5253C24.7499 13.0964 25.0352 13.8166 25.0679 14.5696L23.3916 14.6424C23.3752 14.2659 23.2326 13.9058 22.9867 13.6202C22.7407 13.3347 22.4058 13.1402 22.0358 13.0682C21.6659 12.9962 21.2825 13.0508 20.9474 13.2233C20.6123 13.3958 20.345 13.6761 20.1886 14.019C20.0322 14.3619 19.9959 14.7475 20.0854 15.1136C20.1748 15.4797 20.385 15.805 20.6819 16.0371C20.9789 16.2693 21.3453 16.3946 21.7222 16.3931C22.0991 16.3915 22.4645 16.2631 22.7595 16.0286L23.8037 17.342Z" fill="white"/>
<path d="M24.5774 12.1491C25.1564 11.6664 25.881 11.3926 26.6344 11.3719C27.3879 11.3513 28.1265 11.5849 28.731 12.0351C29.3355 12.4854 29.7708 13.1261 29.9668 13.8539C30.1628 14.5818 30.1081 15.3544 29.8114 16.0473C29.5147 16.7403 28.9934 17.3131 28.3314 17.6736C27.6694 18.0341 26.9053 18.1613 26.1623 18.0345C25.4192 17.9078 24.7405 17.5346 24.2354 16.9751C23.7303 16.4155 23.4284 15.7022 23.3781 14.9501L25.0523 14.8383C25.0774 15.2144 25.2284 15.571 25.4809 15.8508C25.7335 16.1305 26.0728 16.3171 26.4444 16.3805C26.8159 16.4439 27.1979 16.3803 27.5289 16.2001C27.8599 16.0198 28.1206 15.7334 28.2689 15.3869C28.4173 15.0404 28.4447 14.6541 28.3467 14.2902C28.2487 13.9263 28.031 13.6059 27.7287 13.3808C27.4265 13.1557 27.0572 13.0389 26.6805 13.0492C26.3037 13.0595 25.9414 13.1964 25.6519 13.4378L24.5774 12.1491Z" fill="white"/>
<path d="M7.028 13.22C6.394 13.578 6 14.258 6 14.994V32.894C6 33.634 6.394 34.31 7.028 34.668C10.222 36.47 19.94 41.946 23.038 43.692C23.342 43.862 23.676 43.948 24.012 43.948C24.34 43.948 24.668 43.866 24.966 43.702C28.064 41.992 37.746 36.656 40.954 34.886C41.6 34.532 42 33.848 42 33.104V14.994C42 14.258 41.606 13.578 40.97 13.22C37.78 11.422 28.082 5.956 24.972 4.204C24.67 4.034 24.334 3.948 24 3.948C23.664 3.948 23.33 4.034 23.028 4.204C19.918 5.956 10.218 11.422 7.028 13.22ZM39 17.45V32.5L25.5 39.944V24.788L39 17.45ZM9 32.3V17.384L22.5 24.884V39.906L9 32.3ZM10.472 14.762L24 7.136L37.602 14.804L24 22.236L10.472 14.762Z" fill="url(#paint0_linear_507_14)"/>
<path d="M60.3449 15.704V22.232H68.0249V25.208H60.3449V32.024H68.9849V35H56.6969V12.728H68.9849V15.704H60.3449ZM79.8781 35.288C78.4915 35.288 77.2435 35.0427 76.1341 34.552C75.0461 34.04 74.1821 33.3573 73.5421 32.504C72.9021 31.6293 72.5608 30.6587 72.5181 29.592H76.2941C76.3581 30.3387 76.7101 30.968 77.3501 31.48C78.0115 31.9707 78.8328 32.216 79.8141 32.216C80.8381 32.216 81.6275 32.024 82.1821 31.64C82.7581 31.2347 83.0461 30.7227 83.0461 30.104C83.0461 29.4427 82.7261 28.952 82.0861 28.632C81.4675 28.312 80.4755 27.96 79.1101 27.576C77.7875 27.2133 76.7101 26.8613 75.8781 26.52C75.0461 26.1787 74.3208 25.656 73.7021 24.952C73.1048 24.248 72.8061 23.32 72.8061 22.168C72.8061 21.2293 73.0835 20.376 73.6381 19.608C74.1928 18.8187 74.9821 18.2 76.0061 17.752C77.0515 17.304 78.2461 17.08 79.5901 17.08C81.5955 17.08 83.2061 17.592 84.4221 18.616C85.6595 19.6187 86.3208 20.9947 86.4061 22.744H82.7581C82.6941 21.9547 82.3741 21.3253 81.7981 20.856C81.2221 20.3867 80.4435 20.152 79.4621 20.152C78.5021 20.152 77.7661 20.3333 77.2541 20.696C76.7421 21.0587 76.4861 21.5387 76.4861 22.136C76.4861 22.6053 76.6568 23 76.9981 23.32C77.3395 23.64 77.7555 23.896 78.2461 24.088C78.7368 24.2587 79.4621 24.4827 80.4221 24.76C81.7021 25.1013 82.7475 25.4533 83.5581 25.816C84.3901 26.1573 85.1048 26.6693 85.7021 27.352C86.2995 28.0347 86.6088 28.9413 86.6301 30.072C86.6301 31.0747 86.3528 31.9707 85.7981 32.76C85.2435 33.5493 84.4541 34.168 83.4301 34.616C82.4275 35.064 81.2435 35.288 79.8781 35.288ZM94.8279 20.344V30.104C94.8279 30.7653 94.9772 31.2453 95.2759 31.544C95.5959 31.8213 96.1292 31.96 96.8759 31.96H99.1159V35H96.2359C94.5932 35 93.3345 34.616 92.4599 33.848C91.5852 33.08 91.1479 31.832 91.1479 30.104V20.344H89.0679V17.368H91.1479V12.984H94.8279V17.368H99.1159V20.344H94.8279ZM110.126 35.288C108.462 35.288 106.958 34.9147 105.614 34.168C104.27 33.4 103.214 32.3333 102.446 30.968C101.678 29.5813 101.294 27.9813 101.294 26.168C101.294 24.376 101.689 22.7867 102.478 21.4C103.267 20.0133 104.345 18.9467 105.71 18.2C107.075 17.4533 108.601 17.08 110.286 17.08C111.971 17.08 113.497 17.4533 114.862 18.2C116.227 18.9467 117.305 20.0133 118.094 21.4C118.883 22.7867 119.278 24.376 119.278 26.168C119.278 27.96 118.873 29.5493 118.062 30.936C117.251 32.3227 116.142 33.4 114.734 34.168C113.347 34.9147 111.811 35.288 110.126 35.288ZM110.126 32.12C111.065 32.12 111.939 31.896 112.75 31.448C113.582 31 114.254 30.328 114.766 29.432C115.278 28.536 115.534 27.448 115.534 26.168C115.534 24.888 115.289 23.8107 114.798 22.936C114.307 22.04 113.657 21.368 112.846 20.92C112.035 20.472 111.161 20.248 110.222 20.248C109.283 20.248 108.409 20.472 107.598 20.92C106.809 21.368 106.179 22.04 105.71 22.936C105.241 23.8107 105.006 24.888 105.006 26.168C105.006 28.0667 105.486 29.5387 106.446 30.584C107.427 31.608 108.654 32.12 110.126 32.12ZM121.668 26.104C121.668 24.3333 122.031 22.7653 122.756 21.4C123.503 20.0347 124.506 18.9787 125.764 18.232C127.044 17.464 128.463 17.08 130.02 17.08C131.386 17.08 132.591 17.3573 133.636 17.912C134.703 18.4667 135.524 19.1387 136.1 19.928V17.368H139.78V43.384H136.1V32.44C135.524 33.2293 134.692 33.9013 133.604 34.456C132.516 35.0107 131.279 35.288 129.892 35.288C128.378 35.288 126.991 34.904 125.732 34.136C124.495 33.3467 123.503 32.2587 122.756 30.872C122.031 29.464 121.668 27.8747 121.668 26.104ZM136.1 26.168C136.1 24.952 135.844 23.896 135.332 23C134.842 22.104 134.191 21.4213 133.38 20.952C132.57 20.4827 131.695 20.248 130.756 20.248C129.818 20.248 128.943 20.4827 128.132 20.952C127.322 21.4 126.66 22.072 126.148 22.968C125.658 23.8427 125.412 24.888 125.412 26.104C125.412 27.32 125.658 28.3867 126.148 29.304C126.66 30.2213 127.322 30.9253 128.132 31.416C128.964 31.8853 129.839 32.12 130.756 32.12C131.695 32.12 132.57 31.8853 133.38 31.416C134.191 30.9467 134.842 30.264 135.332 29.368C135.844 28.4507 136.1 27.384 136.1 26.168ZM160.54 17.368V35H156.892V32.92C156.316 33.6453 155.559 34.2213 154.62 34.648C153.703 35.0533 152.721 35.256 151.676 35.256C150.289 35.256 149.041 34.968 147.932 34.392C146.844 33.816 145.98 32.9627 145.34 31.832C144.721 30.7013 144.412 29.336 144.412 27.736V17.368H148.028V27.192C148.028 28.7707 148.423 29.9867 149.212 30.84C150.001 31.672 151.079 32.088 152.444 32.088C153.809 32.088 154.887 31.672 155.676 30.84C156.487 29.9867 156.892 28.7707 156.892 27.192V17.368H160.54ZM181.513 25.752C181.513 26.4133 181.47 27.0107 181.385 27.544H167.913C168.02 28.952 168.542 30.0827 169.481 30.936C170.42 31.7893 171.572 32.216 172.937 32.216C174.9 32.216 176.286 31.3947 177.097 29.752H181.033C180.5 31.3733 179.529 32.7067 178.121 33.752C176.734 34.776 175.006 35.288 172.937 35.288C171.252 35.288 169.737 34.9147 168.393 34.168C167.07 33.4 166.025 32.3333 165.257 30.968C164.51 29.5813 164.137 27.9813 164.137 26.168C164.137 24.3547 164.5 22.7653 165.225 21.4C165.972 20.0133 167.006 18.9467 168.329 18.2C169.673 17.4533 171.209 17.08 172.937 17.08C174.601 17.08 176.084 17.4427 177.385 18.168C178.686 18.8933 179.7 19.9173 180.425 21.24C181.15 22.5413 181.513 24.0453 181.513 25.752ZM177.705 24.6C177.684 23.256 177.204 22.1787 176.265 21.368C175.326 20.5573 174.164 20.152 172.777 20.152C171.518 20.152 170.441 20.5573 169.545 21.368C168.649 22.1573 168.116 23.2347 167.945 24.6H177.705Z" fill="white"/>
<defs>
<linearGradient id="paint0_linear_507_14" x1="24" y1="3.948" x2="24" y2="43.948" gradientUnits="userSpaceOnUse">
<stop stop-color="#23E0D5"/>
<stop offset="1" stop-color="#A8EB12"/>
</linearGradient>
</defs>
</svg>
